<svg preserveAspectRatio="none" width="100%" height="100%" overflow="visible" style="display: block;" viewBox="0 0 37.8 45.2" fill="none" xmlns="http://www.w3.org/2000/svg">
<g id="Group">
<path id="Vector" d="M37.8 7.7C37.8 7.6 37.7 7.5 37.7 7.4C37.6 7.2 37.4 7 37.1 7C36.6 6.9 36.1 6.7 35.6 6.5C35.2 6.3 34.8 6.1 34.4 5.8C34 5.5 33.7 5.2 33.4 4.9C33 4.3 32.7 3.7 32.4 3.1C32.1 2.3 31.8 1.5 31.5 0.7C31.4 0.3 31 0 30.6 0C30.2 0 29.8 0.3 29.7 0.7C29.4 1.5 29.2 2.3 28.8 3.1C28.5 3.7 28.2 4.3 27.8 4.9C27.5 5.2 27.2 5.6 26.9 5.8C26.5 6.1 26.1 6.3 25.7 6.5C25.2 6.7 24.7 6.8 24.2 7C24 7 23.8 7.2 23.7 7.3C23.6 7.5 23.5 7.7 23.5 7.9C23.5 8.3 23.8 8.7 24.2 8.8C24.7 8.9 25.2 9.1 25.6 9.2C26 9.4 26.4 9.6 26.8 9.9C27.2 10.2 27.5 10.5 27.8 10.9C28.2 11.5 28.6 12.1 28.8 12.7C29.2 13.6 29.4 14.5 29.7 15.4C29.8 15.8 30.2 16.1 30.6 16.1C31 16.1 31.4 15.8 31.5 15.4C31.8 14.5 32.1 13.6 32.4 12.7C32.7 12.1 33 11.4 33.4 10.9C33.7 10.5 34 10.2 34.4 9.9C34.8 9.6 35.2 9.4 35.6 9.2C36.1 9 36.5 8.9 37 8.8C37.2 8.8 37.4 8.6 37.5 8.5C37.6 8.4 37.6 8.3 37.7 8.2C37.8 7.9 37.8 7.8 37.8 7.7Z" fill="url(#paint0_linear_226_59473)"/>
<path id="Vector_2" d="M32.1 26.1C32 25.9 31.8 25.7 31.6 25.7C30.7 25.5 29.7 25.3 28.8 24.9C28.6 24.8 28.4 24.7 28.2 24.7C28.1 24.7 28 24.6 27.9 24.6C27.9 24.6 27.8 24.6 27.7 24.5C27.3 24.3 27 24.2 26.6 24C25.9 23.6 25.2 23.2 24.6 22.8C24.5 22.7 24.4 22.7 24.4 22.6C24.4 22.6 24.4 22.6 24.3 22.5C24.1 22.4 24 22.3 23.9 22.1C23.6 21.9 23.4 21.6 23.1 21.4C22.8 21.1 22.6 20.9 22.4 20.6C22.3 20.5 22.2 20.3 22 20.2C21.9 20.1 21.9 20.1 21.8 20C21.4 19.4 21 18.8 20.6 18.2C20.2 17.6 19.9 16.9 19.6 16.2C19.5 15.9 19.3 15.6 19.2 15.2C19.2 15.2 19.1 15.1 19.1 15C19.1 14.9 19 14.8 19 14.7C18.9 14.5 18.9 14.3 18.8 14.1C18.2 12.6 17.7 11 17.2 9.5C17.1 9.3 17.1 9.1 17 8.9C16.9 8.5 16.5 8.2 16.1 8.2C15.7 8.2 15.3 8.5 15.2 8.9C14.7 10.5 14.2 12.1 13.6 13.6C13.5 14 13.3 14.3 13.2 14.7C13.2 14.8 13.1 14.9 13.1 15V15.1C13.1 15.2 13 15.4 12.9 15.5C12.6 16.2 12.3 16.9 11.9 17.5C11.5 18.1 11.2 18.8 10.8 19.3C10.7 19.4 10.6 19.6 10.5 19.7C10.5 19.7 10.5 19.7 10.5 19.8C10.5 19.8 10.5 19.8 10.4 19.9C10.4 20 10.3 20 10.3 20.1C10.1 20.4 9.8 20.6 9.6 20.9C9.1 21.4 8.6 21.9 8 22.4C8 22.4 8 22.4 7.9 22.4C7.8 22.5 7.7 22.5 7.7 22.6C7.5 22.7 7.4 22.8 7.2 22.9C6.9 23.1 6.5 23.3 6.2 23.5C5.9 23.7 5.5 23.9 5.1 24.1C4.9 24.2 4.7 24.3 4.6 24.3C4.6 24.3 4.5 24.3 4.4 24.4C4.3 24.4 4.2 24.5 4.1 24.5C3.2 24.8 2.3 25.1 1.4 25.3C1.1 25.4 0.9 25.4 0.7 25.5C0.3 25.6 0 26 0 26.4C0 26.8 0.3 27.2 0.7 27.3C1.6 27.5 2.6 27.8 3.5 28.1C3.7 28.2 3.9 28.3 4.1 28.4C4.1 28.4 4.2 28.4 4.3 28.5C4.4 28.5 4.4 28.5 4.5 28.6C4.9 28.8 5.3 28.9 5.6 29.1C6.3 29.5 7 29.9 7.6 30.4C7.6 30.4 7.7 30.4 7.7 30.5C7.8 30.6 7.9 30.6 7.9 30.7C8 30.8 8.2 31 8.3 31.1C8.6 31.4 8.8 31.6 9.1 31.9C9.4 32.2 9.6 32.4 9.8 32.7C9.9 32.8 9.9 32.8 10 32.9L10.1 33C10.2 33.1 10.3 33.3 10.4 33.4C10.8 34 11.2 34.7 11.6 35.3C12 36 12.3 36.6 12.6 37.3C12.7 37.5 12.8 37.7 12.8 37.8C12.8 37.9 12.9 38 12.9 38.1C13 38.5 13.2 38.9 13.3 39.2C13.9 40.7 14.4 42.3 14.9 43.9C15 44.1 15 44.3 15.1 44.5C15.2 44.9 15.6 45.2 16 45.2C16.4 45.2 16.8 44.9 16.9 44.5C17.4 42.9 17.9 41.3 18.5 39.7C18.6 39.3 18.8 38.9 18.9 38.6C19 38.4 19 38.2 19.1 38C19.1 37.9 19.2 37.8 19.2 37.7C19.2 37.7 19.2 37.7 19.2 37.6C19.5 36.9 19.8 36.2 20.2 35.6C20.5 34.9 20.9 34.3 21.3 33.7C21.4 33.5 21.5 33.4 21.6 33.2C21.6 33.2 21.8 32.9 21.9 32.8V32.7C21.9 32.7 21.9 32.7 21.9 32.6C22 32.5 22 32.5 22.1 32.4C22.2 32.3 22.3 32.1 22.5 32C23 31.4 23.5 30.9 24.1 30.4C24.2 30.3 24.2 30.3 24.3 30.2C24.3 30.2 24.4 30.2 24.4 30.1C24.6 30 24.7 29.9 24.8 29.8C25.1 29.6 25.5 29.3 25.8 29.1C26.1 28.9 26.5 28.7 26.9 28.5C27.1 28.4 27.3 28.3 27.5 28.2C27.6 28.2 27.6 28.2 27.7 28.1H27.8H27.9C28.8 27.7 29.7 27.5 30.6 27.2C30.9 27.1 31.1 27.1 31.3 27C31.5 27 31.6 26.9 31.7 26.8C31.8 26.7 31.9 26.5 32 26.4C32 26.2 32 26.1 32 25.9C32.2 26.3 32.2 26.2 32.1 26.1Z" fill="url(#paint1_linear_226_59473)"/>
</g>
<defs>
<linearGradient id="paint0_linear_226_59473" x1="30.667" y1="2.736" x2="30.667" y2="42.286" gradientUnits="userSpaceOnUse">
<stop stop-color="#B97EFC"/>
<stop offset="0.368" stop-color="#984DE9"/>
<stop offset="1" stop-color="#2A88BC"/>
</linearGradient>
<linearGradient id="paint1_linear_226_59473" x1="16.034" y1="2.736" x2="16.034" y2="42.286" gradientUnits="userSpaceOnUse">
<stop stop-color="#B97EFC"/>
<stop offset="0.368" stop-color="#984DE9"/>
<stop offset="1" stop-color="#2A88BC"/>
</linearGradient>
</defs>
</svg>
